<svg width="50" height="50" viewBox="0 0 100 100" fill="none" xmlns="http://www.w3.org/2000/svg">
<rect width="100" height="100" rx="30" fill="#FFA05C"/>
<rect x="34" y="26" width="34" height="35" rx="17" fill="white"/>
<rect x="43" y="35" width="16" height="16" rx="8" fill="#FFA05C"/>
<path d="M33.5221 44.6111C33.5837 42.0008 37.3175 41.6194 37.9056 44.1633V44.1633C37.968 44.433 37.9794 44.712 37.9392 44.9859L34.7893 66.4542C34.6889 67.1382 33.8835 67.4545 33.3444 67.0216V67.0216C33.1273 66.8472 33.0039 66.5816 33.0104 66.3032L33.5221 44.6111Z" fill="white"/>
<path d="M36.522 51.1835C36.5849 48.5822 40.301 48.1934 40.901 50.7253V50.7253C40.9664 51.0011 40.9783 51.2869 40.9362 51.5672L37.7909 72.4812C37.6889 73.1594 36.8934 73.4757 36.3536 73.0526V73.0526C36.1311 72.8782 36.004 72.609 36.0109 72.3264L36.522 51.1835Z" fill="white"/>
<path d="M39.522 51.1835C39.5849 48.5822 43.301 48.1934 43.901 50.7253V50.7253C43.9664 51.0011 43.9783 51.2869 43.9362 51.5672L40.7909 72.4812C40.6889 73.1594 39.8934 73.4757 39.3536 73.0526V73.0526C39.1311 72.8782 39.004 72.609 39.0109 72.3264L39.522 51.1835Z" fill="white"/>
</svg>
